<?xml version="1.0" standalone="no"?>
<!DOCTYPE svg PUBLIC "-//W3C//DTD SVG 20010904//EN"
 "http://www.w3.org/TR/2001/REC-SVG-20010904/DTD/svg10.dtd">
<svg version="1.0" xmlns="http://www.w3.org/2000/svg"
 width="1563.000000pt" height="1563.000000pt" viewBox="0 0 1563.000000 1563.000000"
 preserveAspectRatio="xMidYMid meet">
<metadata>
Created by potrace 1.11, written by Peter Selinger 2001-2013
</metadata>
<g transform="translate(0.000000,1563.000000) scale(0.100000,-0.100000)"
fill="#000000" stroke="none">
<path d="M14260 14670 c-8 -4 -37 -16 -65 -25 -46 -16 -294 -261 -3275 -3240
-1774 -1772 -3239 -3232 -3257 -3244 -39 -26 -138 -29 -186 -5 -55 28 -117 84
-137 124 -31 61 -27 145 9 201 16 24 704 719 1530 1544 826 825 1501 1504
1501 1508 0 5 8 21 19 35 10 15 21 41 26 57 4 17 10 41 13 55 26 108 -19 250
-109 340 -47 47 -120 90 -153 90 -8 0 -18 5 -21 10 -3 6 -42 10 -86 10 -85 0
-163 -19 -214 -53 -16 -11 -766 -755 -1665 -1652 -899 -898 -1650 -1641 -1669
-1650 -27 -13 -52 -16 -107 -13 -41 3 -79 9 -86 14 -7 6 -31 16 -53 23 -93 31
-145 102 -145 198 0 34 7 68 19 91 11 21 434 451 965 982 520 520 946 949 946
953 0 5 9 21 19 36 33 47 54 137 49 216 -9 136 -89 253 -215 315 -63 31 -74
33 -168 33 -182 -1 -45 121 -1485 -1318 -902 -901 -1272 -1265 -1287 -1265
-12 0 -25 -4 -28 -10 -3 -5 -42 -10 -85 -10 -43 0 -82 5 -85 10 -3 6 -14 10
-24 10 -21 0 -83 63 -105 107 -23 46 -21 130 5 173 12 19 313 325 669 681 356
356 657 661 670 679 32 45 70 163 70 218 0 97 -47 202 -124 277 -88 85 -220
128 -323 105 -145 -32 -33 74 -1733 -1624 -861 -860 -1581 -1575 -1600 -1591
-201 -161 -460 -428 -627 -649 -51 -66 -103 -134 -116 -151 -103 -130 -324
-524 -413 -735 -45 -108 -52 -125 -63 -152 -5 -13 -14 -36 -21 -53 -18 -44
-87 -257 -110 -340 -29 -102 -50 -193 -50 -216 0 -14 -4 -29 -9 -35 -5 -5 -11
-27 -14 -49 -7 -48 -14 -91 -28 -165 -33 -178 -70 -763 -50 -783 7 -7 11 -57
11 -121 0 -60 4 -135 10 -165 5 -31 14 -99 20 -151 6 -52 15 -117 21 -145 5
-27 14 -70 19 -95 5 -25 16 -79 25 -120 9 -41 18 -90 22 -108 3 -18 9 -35 14
-38 5 -3 9 -14 9 -25 0 -11 7 -44 16 -72 28 -91 55 -171 64 -192 5 -11 16 -42
25 -70 19 -57 27 -75 49 -127 9 -20 16 -38 16 -41 0 -14 137 -299 183 -382 18
-33 46 -82 61 -110 16 -27 33 -57 40 -65 7 -8 30 -44 51 -80 69 -114 229 -329
354 -475 69 -79 337 -347 426 -424 159 -138 238 -197 435 -328 47 -31 97 -65
112 -75 15 -10 30 -18 34 -18 3 0 18 -8 32 -19 31 -21 117 -69 182 -101 84
-41 115 -56 135 -68 30 -17 174 -82 181 -82 3 0 22 -7 42 -16 58 -25 74 -31
127 -49 28 -9 58 -21 67 -26 10 -5 26 -9 36 -9 10 0 22 -4 28 -8 8 -8 55 -23
169 -54 58 -16 107 -30 135 -39 23 -8 78 -19 190 -40 50 -9 81 -15 155 -30 74
-15 242 -30 395 -35 74 -3 139 -9 144 -15 13 -12 213 -12 221 1 4 6 60 10 135
10 72 0 149 4 172 10 24 5 88 14 143 20 98 10 166 21 255 40 25 5 72 14 105
20 33 6 69 15 80 20 11 5 31 11 45 13 101 19 380 110 487 158 24 10 45 19 49
19 40 0 560 267 615 316 8 8 19 14 23 14 8 0 125 79 221 149 227 165 418 335
599 531 38 41 860 867 1827 1835 1044 1045 1763 1772 1770 1790 42 108 49 135
49 190 0 58 -14 114 -46 183 -23 49 -113 136 -174 168 -50 26 -64 29 -161 29
-112 0 -150 -12 -239 -74 -19 -14 -390 -379 -825 -812 -829 -825 -800 -799
-884 -799 -76 0 -156 54 -186 127 -21 49 -19 122 4 169 13 25 461 479 1286
1304 712 711 1281 1287 1300 1316 62 96 76 224 38 348 -11 37 -73 124 -109
154 -82 68 -178 98 -285 89 -142 -12 -82 41 -1159 -1032 -536 -535 -990 -981
-1009 -990 -55 -28 -161 -16 -209 22 -56 45 -102 144 -102 221 0 23 9 61 20
85 14 30 409 431 1441 1462 781 781 1433 1438 1448 1460 46 67 61 122 61 220
0 137 -47 236 -147 309 -70 51 -132 69 -239 68 -168 0 -33 120 -1504 -1347
-718 -716 -1320 -1312 -1338 -1324 -49 -34 -129 -39 -185 -12 -42 20 -137 117
-137 139 0 5 -7 15 -16 23 -55 45 -73 182 -33 242 12 18 1468 1479 3235 3247
3347 3350 3264 3265 3264 3344 0 14 5 28 10 31 6 3 10 37 10 75 0 38 -4 72
-10 75 -5 3 -10 14 -10 25 0 31 -53 123 -95 165 -42 42 -134 95 -165 95 -11 0
-22 5 -25 10 -7 12 -154 12 -175 0z"/>
<path d="M12038 14225 c-25 -7 -59 -20 -75 -28 -15 -9 -37 -20 -48 -26 -11 -5
-308 -299 -661 -653 -608 -610 -674 -682 -674 -731 0 -9 -4 -19 -10 -22 -12
-8 -13 -202 -1 -209 4 -3 11 -19 15 -36 13 -67 110 -173 191 -210 138 -63 279
-45 405 49 33 25 1206 1195 1242 1240 30 36 63 94 77 136 16 47 19 196 4 228
-6 12 -19 40 -28 62 -20 45 -111 145 -131 145 -8 0 -14 4 -14 9 0 19 -148 62
-208 60 -20 -1 -58 -7 -84 -14z"/>
<path d="M6929 12645 c-99 -27 -121 -45 -415 -339 -212 -213 -297 -304 -315
-340 -21 -44 -24 -63 -24 -171 0 -110 2 -126 25 -171 47 -92 139 -166 251
-202 45 -15 145 -15 190 -1 104 33 133 56 421 347 289 291 328 339 328 406 0
14 5 28 10 31 24 15 -1 178 -37 249 -25 49 -105 127 -157 153 -99 50 -187 62
-277 38z"/>
<path d="M12790 11296 c-25 -7 -63 -23 -85 -34 -22 -12 -171 -153 -332 -314
-311 -312 -325 -330 -343 -441 -23 -148 59 -320 187 -391 58 -33 164 -59 211
-53 80 11 137 28 180 53 25 15 168 149 318 300 328 328 326 325 332 497 4 110
3 121 -22 170 -31 64 -110 148 -168 179 -87 45 -191 58 -278 34z"/>
<path d="M12665 7726 c-53 -16 -73 -24 -115 -44 -54 -24 -591 -567 -617 -622
-39 -83 -45 -109 -46 -182 0 -118 35 -200 122 -281 125 -117 288 -139 445 -61
17 9 161 145 319 302 341 339 349 351 349 508 1 112 -18 172 -78 246 -86 110
-260 171 -379 134z"/>
</g>
</svg>
