<svg version="1" xmlns="http://www.w3.org/2000/svg" width="2084" height="2084" viewBox="0 0 1563.000000 1563.000000"><path d="M1426 96c-.8.4-3.7 1.6-6.5 2.5-4.6 1.6-29.4 26.1-327.5 324-177.4 177.2-323.9 323.2-325.7 324.4-3.9 2.6-13.8 2.9-18.6.5-5.5-2.8-11.7-8.4-13.7-12.4-3.1-6.1-2.7-14.5.9-20.1 1.6-2.4 70.4-71.9 153-154.4S1038 410.1 1038 409.7c0-.5.8-2.1 1.9-3.5 1-1.5 2.1-4.1 2.6-5.7.4-1.7 1-4.1 1.3-5.5 2.6-10.8-1.9-25-10.9-34-4.7-4.7-12-9-15.3-9-.8 0-1.8-.5-2.1-1-.3-.6-4.2-1-8.6-1-8.5 0-16.3 1.9-21.4 5.3-1.6 1.1-76.6 75.5-166.5 165.2-89.9 89.8-165 164.1-166.9 165-2.7 1.3-5.2 1.6-10.7 1.3-4.1-.3-7.9-.9-8.6-1.4-.7-.6-3.1-1.6-5.3-2.3-9.3-3.1-14.5-10.2-14.5-19.8 0-3.4.7-6.8 1.9-9.1 1.1-2.1 43.4-45.1 96.5-98.2 52-52 94.6-94.9 94.6-95.3 0-.5.9-2.1 1.9-3.6 3.3-4.7 5.4-13.7 4.9-21.6-.9-13.6-8.9-25.3-21.5-31.5-6.3-3.1-7.4-3.3-16.8-3.3-18.2.1-4.5-12.1-148.5 131.8C535.8 622.6 498.8 659 497.3 659c-1.2 0-2.5.4-2.8 1-.3.5-4.2 1-8.5 1s-8.2-.5-8.5-1c-.3-.6-1.4-1-2.4-1-2.1 0-8.3-6.3-10.5-10.7-2.3-4.6-2.1-13 .5-17.3 1.2-1.9 31.3-32.5 66.9-68.1 35.6-35.6 65.7-66.1 67-67.9 3.2-4.5 7-16.3 7-21.8 0-9.7-4.7-20.2-12.4-27.7-8.8-8.5-22-12.8-32.3-10.5-14.5 3.2-3.3-7.4-173.3 162.4-86.1 86-158.1 157.5-160 159.1-20.1 16.1-46 42.8-62.7 64.9-5.1 6.6-10.3 13.4-11.6 15.1-10.3 13-32.4 52.4-41.3 73.5-4.5 10.8-5.2 12.5-6.3 15.2-.5 1.3-1.4 3.6-2.1 5.3-1.8 4.4-8.7 25.7-11 34-2.9 10.2-5 19.3-5 21.6 0 1.4-.4 2.9-.9 3.5-.5.5-1.1 2.7-1.4 4.9-.7 4.8-1.4 9.1-2.8 16.5-3.3 17.8-7 76.3-5 78.3.7.7 1.1 5.7 1.1 12.1 0 6 .4 13.5 1 16.5.5 3.1 1.4 9.9 2 15.1.6 5.2 1.5 11.7 2.1 14.5.5 2.7 1.4 7 1.9 9.5s1.6 7.9 2.5 12c.9 4.1 1.8 9 2.2 10.8.3 1.8.9 3.5 1.4 3.8.5.3.9 1.4.9 2.5s.7 4.4 1.6 7.2c2.8 9.1 5.5 17.1 6.4 19.2.5 1.1 1.6 4.2 2.5 7 1.9 5.7 2.7 7.5 4.9 12.7.9 2 1.6 3.8 1.6 4.1 0 1.4 13.7 29.9 18.3 38.2 1.8 3.3 4.6 8.2 6.1 11 1.6 2.7 3.3 5.7 4 6.5.7.8 3 4.4 5.1 8 6.9 11.4 22.9 32.9 35.4 47.5 6.9 7.9 33.7 34.7 42.6 42.4 15.9 13.8 23.8 19.7 43.5 32.8 4.7 3.1 9.7 6.5 11.2 7.5s3 1.8 3.4 1.8c.3 0 1.8.8 3.2 1.9 3.1 2.1 11.7 6.9 18.2 10.1 8.4 4.1 11.5 5.6 13.5 6.8 3 1.7 17.4 8.2 18.1 8.2.3 0 2.2.7 4.2 1.6 5.8 2.5 7.4 3.1 12.7 4.9 2.8.9 5.8 2.1 6.7 2.6 1 .5 2.6.9 3.6.9s2.2.4 2.8.8c.8.8 5.5 2.3 16.9 5.4 5.8 1.6 10.7 3 13.5 3.9 2.3.8 7.8 1.9 19 4 5 .9 8.1 1.5 15.5 3s24.2 3 39.5 3.5c7.4.3 13.9.9 14.4 1.5 1.3 1.2 21.3 1.2 22.1-.1.4-.6 6-1 13.5-1 7.2 0 14.9-.4 17.2-1 2.4-.5 8.8-1.4 14.3-2 9.8-1 16.6-2.1 25.5-4 2.5-.5 7.2-1.4 10.5-2 3.3-.6 6.9-1.5 8-2 1.1-.5 3.1-1.1 4.5-1.3 10.1-1.9 38-11 48.7-15.8 2.4-1 4.5-1.9 4.9-1.9 4 0 56-26.7 61.5-31.6.8-.8 1.9-1.4 2.3-1.4.8 0 12.5-7.9 22.1-14.9 22.7-16.5 41.8-33.5 59.9-53.1 3.8-4.1 86-86.7 182.7-183.5 104.4-104.5 176.3-177.2 177-179 4.2-10.8 4.9-13.5 4.9-19 0-5.8-1.4-11.4-4.6-18.3-2.3-4.9-11.3-13.6-17.4-16.8-5-2.6-6.4-2.9-16.1-2.9-11.2 0-15 1.2-23.9 7.4-1.9 1.4-39 37.9-82.5 81.2-82.9 82.5-80 79.9-88.4 79.9-7.6 0-15.6-5.4-18.6-12.7-2.1-4.9-1.9-12.2.4-16.9 1.3-2.5 46.1-47.9 128.6-130.4 71.2-71.1 128.1-128.7 130-131.6 6.2-9.6 7.6-22.4 3.8-34.8-1.1-3.7-7.3-12.4-10.9-15.4-8.2-6.8-17.8-9.8-28.5-8.9-14.2 1.2-8.2-4.1-115.9 103.2-53.6 53.5-99 98.1-100.9 99-5.5 2.8-16.1 1.6-20.9-2.2-5.6-4.5-10.2-14.4-10.2-22.1 0-2.3.9-6.1 2-8.5 1.4-3 40.9-43.1 144.1-146.2 78.1-78.1 143.3-143.8 144.8-146 4.6-6.7 6.1-12.2 6.1-22 0-13.7-4.7-23.6-14.7-30.9-7-5.1-13.2-6.9-23.9-6.8-16.8 0-3.3-12-150.4 134.7-71.8 71.6-132 131.2-133.8 132.4-4.9 3.4-12.9 3.9-18.5 1.2-4.2-2-13.7-11.7-13.7-13.9 0-.5-.7-1.5-1.6-2.3-5.5-4.5-7.3-18.2-3.3-24.2 1.2-1.8 146.8-147.9 323.5-324.7C1480.3 143 1472 151.5 1472 143.6c0-1.4.5-2.8 1-3.1.6-.3 1-3.7 1-7.5s-.4-7.2-1-7.5c-.5-.3-1-1.4-1-2.5 0-3.1-5.3-12.3-9.5-16.5-4.2-4.2-13.4-9.5-16.5-9.5-1.1 0-2.2-.5-2.5-1-.7-1.2-15.4-1.2-17.5 0z"/><path d="M1203.8 140.5c-2.5.7-5.9 2-7.5 2.8-1.5.9-3.7 2-4.8 2.6-1.1.5-30.8 29.9-66.1 65.3-60.8 61-67.4 68.2-67.4 73.1 0 .9-.4 1.9-1 2.2-1.2.8-1.3 20.2-.1 20.9.4.3 1.1 1.9 1.5 3.6 1.3 6.7 11 17.3 19.1 21 13.8 6.3 27.9 4.5 40.5-4.9 3.3-2.5 120.6-119.5 124.2-124 3-3.6 6.3-9.4 7.7-13.6 1.6-4.7 1.9-19.6.4-22.8-.6-1.2-1.9-4-2.8-6.2-2-4.5-11.1-14.5-13.1-14.5-.8 0-1.4-.4-1.4-.9 0-1.9-14.8-6.2-20.8-6-2 .1-5.8.7-8.4 1.4zM692.9 298.5c-9.9 2.7-12.1 4.5-41.5 33.9-21.2 21.3-29.7 30.4-31.5 34-2.1 4.4-2.4 6.3-2.4 17.1 0 11 .2 12.6 2.5 17.1 4.7 9.2 13.9 16.6 25.1 20.2 4.5 1.5 14.5 1.5 19 .1 10.4-3.3 13.3-5.6 42.1-34.7 28.9-29.1 32.8-33.9 32.8-40.6 0-1.4.5-2.8 1-3.1 2.4-1.5-.1-17.8-3.7-24.9-2.5-4.9-10.5-12.7-15.7-15.3-9.9-5-18.7-6.2-27.7-3.8zM1279 433.4c-2.5.7-6.3 2.3-8.5 3.4-2.2 1.2-17.1 15.3-33.2 31.4-31.1 31.2-32.5 33-34.3 44.1-2.3 14.8 5.9 32 18.7 39.1 5.8 3.3 16.4 5.9 21.1 5.3 8-1.1 13.7-2.8 18-5.3 2.5-1.5 16.8-14.9 31.8-30 32.8-32.8 32.6-32.5 33.2-49.7.4-11 .3-12.1-2.2-17-3.1-6.4-11-14.8-16.8-17.9-8.7-4.5-19.1-5.8-27.8-3.4zM1266.5 790.4c-5.3 1.6-7.3 2.4-11.5 4.4-5.4 2.4-59.1 56.7-61.7 62.2-3.9 8.3-4.5 10.9-4.6 18.2 0 11.8 3.5 20 12.2 28.1 12.5 11.7 28.8 13.9 44.5 6.1 1.7-.9 16.1-14.5 31.9-30.2 34.1-33.9 34.9-35.1 34.9-50.8.1-11.2-1.8-17.2-7.8-24.6-8.6-11-26-17.1-37.9-13.4z"/></svg>